<?xml version="1.0" encoding="UTF-8" standalone="no"?>
<svg
   xmlns:dc="http://purl.org/dc/elements/1.1/"
   xmlns:cc="http://creativecommons.org/ns#"
   xmlns:rdf="http://www.w3.org/1999/02/22-rdf-syntax-ns#"
   xmlns:svg="http://www.w3.org/2000/svg"
   xmlns="http://www.w3.org/2000/svg"
   xmlns:sodipodi="http://sodipodi.sourceforge.net/DTD/sodipodi-0.dtd"
   xmlns:inkscape="http://www.inkscape.org/namespaces/inkscape"
   inkscape:version="1.0 (4035a4fb49, 2020-05-01)"
   sodipodi:docname="local_gas_station-black-48dp_inkscape.svg"
   id="svg26"
   version="1.1"
   height="48px"
   width="48px"
   fill="black"
   viewBox="0 0 24 24">
  <metadata
     id="metadata32">
    <rdf:RDF>
      <cc:Work
         rdf:about="">
        <dc:format>image/svg+xml</dc:format>
        <dc:type
           rdf:resource="http://purl.org/dc/dcmitype/StillImage" />
        <dc:title></dc:title>
      </cc:Work>
    </rdf:RDF>
  </metadata>
  <defs
     id="defs30" />
  <sodipodi:namedview
     inkscape:current-layer="svg26"
     inkscape:window-maximized="1"
     inkscape:window-y="-8"
     inkscape:window-x="-8"
     inkscape:cy="24"
     inkscape:cx="24"
     inkscape:zoom="15.3125"
     showgrid="false"
     id="namedview28"
     inkscape:window-height="1537"
     inkscape:window-width="2560"
     inkscape:pageshadow="2"
     inkscape:pageopacity="0"
     guidetolerance="10"
     gridtolerance="10"
     objecttolerance="10"
     borderopacity="1"
     bordercolor="#666666"
     pagecolor="#ffffff" />
  <path
     id="path22"
     fill="none"
     d="M0 0h24v24H0z" />
  <path
     style="fill:#d40000"
     id="path24"
     d="m 23.198571,4.3891837 0.01,-0.01 -3.72,-3.72000003 -1.06,1.06000003 2.11,2.11 c -0.94,0.36 -1.61,1.26 -1.61,2.33 0,1.38 1.12,2.5 2.5,2.5 0.36,0 0.69,-0.08 1,-0.21 v 7.2100003 c 0,0.55 -0.45,1 -1,1 -0.55,0 -1,-0.45 -1,-1 v -4.5 c 0,-1.1 -0.9,-2.0000003 -2,-2.0000003 h -1 v -7 c 0,-1.1 -0.9,-2.00000003 -2,-2.00000003 H 9.4285714 c -1.1,0 -2,0.90000003 -2,2.00000003 V 18.159184 h 9.9999996 v -7.5 h 1.5 v 5 c 0,1.38 1.12,2.5 2.5,2.5 1.38,0 2.5,-1.12 2.5,-2.5 V 6.1591837 c 0,-0.69 -0.28,-1.32 -0.73,-1.77 z m -7.77,2.77 H 9.4285714 v -5 h 5.9999996 z m 6,0 c -0.55,0 -1,-0.45 -1,-1 0,-0.55 0.45,-1 1,-1 0.55,0 1,0.45 1,1 0,0.55 -0.45,1 -1,1 z" />
  <rect
     y="11.185715"
     x="0.13560002"
     height="6.0591841"
     width="18.631746"
     id="rect34"
     style="fill:#000000;fill-rule:evenodd;stroke-width:0.518072" />
</svg>
